<svg width="48" height="48" viewBox="0 0 48 48" fill="none" xmlns="http://www.w3.org/2000/svg">
  <rect width="48" height="48" fill="#0C0C0C"/>
  <path d="M6.5 7C5.5 7 4.5 7 3.5 7C3.5 11 3.5 15 3.5 19C3.5 24 3.5 29 3.5 33.5L8.5 33.5C8.5 31 8.5 28.5 8.5 26C8.5 22 8.5 18 8.5 14.5C9 14.5 9.5 14.5 10.5 14.5C13.5 14.3 17.5 14 19 16C20.5 17.9 20.5 21 19 23C18.3 23.7 17.3 24.2 16.3 24.6C14.5 25.4 12.8 26.1 12.8 29C12.8 29.3 12.9 29.6 13 29.9C13.8 31.5 14.3 31.9 15.2 32.7C15.7 33.1 16.3 33.5 17.2 34.2C20.2 36.8 21.6 41 22.5 43.5L28 43.5C26.8 40 24.5 35 22.8 33C21.1 31 21.1 31.2 20 30.3C18.9 29.4 18 28.8 18 28.6C19 27.7 21 26.5 22 25.7C27.5 22.5 28 14 23 9.5C20 6.2 17 5 13.5 5C10.8 4.95 8.2 5 6.5 7Z" fill="#F8F8F8"/>
  <circle cx="40" cy="14" r="4" fill="#DB3B3B"/>
</svg>
