<svg width="566" height="167" viewBox="0 0 566 167" fill="none" xmlns="http://www.w3.org/2000/svg">
<path d="M149.339 134.712C140.55 134.712 132.923 132.793 126.458 128.954C119.992 125.014 114.992 119.761 111.456 113.195C107.92 106.628 106.152 99.3548 106.152 91.3742C106.152 83.0905 107.971 75.7159 111.607 69.2506C115.345 62.7853 120.346 57.6837 126.609 53.946C132.872 50.2082 139.944 48.3393 147.823 48.3393C154.39 48.3393 160.198 49.4 165.25 51.5215C170.301 53.5419 174.543 56.421 177.978 60.1587C181.514 63.8965 184.191 68.2404 186.009 73.1904C187.828 78.0394 188.737 83.343 188.737 89.1012C188.737 90.7175 188.636 92.3339 188.434 93.9502C188.333 95.4655 188.08 96.7788 187.676 97.89H125.7V81.2216H174.796L164.037 89.1012C165.047 84.7573 164.997 80.9185 163.886 77.5848C162.775 74.1501 160.805 71.4731 157.976 69.5537C155.248 67.5332 151.864 66.523 147.823 66.523C143.884 66.523 140.499 67.4827 137.671 69.4021C134.842 71.3215 132.721 74.1501 131.307 77.8879C129.892 81.6257 129.337 86.1716 129.64 91.5257C129.236 96.1726 129.791 100.264 131.307 103.8C132.822 107.335 135.145 110.114 138.277 112.134C141.409 114.053 145.197 115.013 149.642 115.013C153.683 115.013 157.117 114.205 159.946 112.589C162.876 110.972 165.148 108.75 166.765 105.921L184.949 114.558C183.332 118.599 180.756 122.135 177.22 125.166C173.786 128.196 169.694 130.57 164.946 132.288C160.198 133.904 154.996 134.712 149.339 134.712Z" fill="#FFFAFA"/>
<path d="M202.121 132.894V50.1577H223.336V70.3113L221.063 66.9776C222.275 60.6133 225.205 55.9159 229.852 52.8852C234.498 49.8546 240.055 48.3393 246.52 48.3393C253.389 48.3393 259.4 50.1072 264.552 53.6429C269.805 57.0776 273.088 61.7246 274.402 67.5838L267.886 68.1899C270.613 61.4215 274.503 56.421 279.554 53.1883C284.605 49.9556 290.515 48.3393 297.283 48.3393C303.243 48.3393 308.496 49.6526 313.042 52.2791C317.689 54.9056 321.326 58.5929 323.952 63.3409C326.579 67.9878 327.892 73.443 327.892 79.7063V132.894H305.163V84.5553C305.163 81.3226 304.556 78.5445 303.344 76.221C302.233 73.8976 300.617 72.0792 298.495 70.7659C296.374 69.4526 293.798 68.796 290.767 68.796C287.837 68.796 285.261 69.4526 283.039 70.7659C280.918 72.0792 279.251 73.8976 278.038 76.221C276.927 78.5445 276.372 81.3226 276.372 84.5553V132.894H253.642V84.5553C253.642 81.3226 253.036 78.5445 251.824 76.221C250.712 73.8976 249.096 72.0792 246.975 70.7659C244.853 69.4526 242.277 68.796 239.246 68.796C236.317 68.796 233.741 69.4526 231.518 70.7659C229.397 72.0792 227.73 73.8976 226.518 76.221C225.407 78.5445 224.851 81.3226 224.851 84.5553V132.894H202.121Z" fill="#FFFAFA"/>
<path d="M342.85 132.894V50.1577H365.58V132.894H342.85Z" fill="#FFFAFA"/>
<path d="M422.823 166.231C416.459 166.231 410.549 165.17 405.094 163.048C399.639 160.927 394.941 157.947 391.001 154.108C387.163 150.37 384.385 145.925 382.667 140.773L403.73 133.348C404.841 137.187 407.114 140.218 410.549 142.44C413.984 144.663 418.075 145.774 422.823 145.774C426.561 145.774 429.793 145.067 432.521 143.652C435.249 142.339 437.319 140.369 438.734 137.743C440.249 135.116 441.007 132.035 441.007 128.499V109.558L445.401 115.013C442.573 119.66 438.936 123.145 434.491 125.469C430.046 127.691 424.843 128.802 418.883 128.802C411.206 128.802 404.336 127.085 398.275 123.65C392.214 120.115 387.466 115.316 384.031 109.255C380.596 103.093 378.879 96.1221 378.879 88.3435C378.879 80.5649 380.596 73.6955 384.031 67.7353C387.466 61.674 392.163 56.9261 398.123 53.4914C404.084 50.0566 410.852 48.3393 418.429 48.3393C424.389 48.3393 429.591 49.5515 434.036 51.976C438.481 54.2995 442.269 57.8858 445.401 62.7348L442.522 68.1899V50.1577H463.736V128.499C463.736 135.773 461.969 142.238 458.433 147.895C454.897 153.653 450.048 158.149 443.886 161.382C437.825 164.614 430.804 166.231 422.823 166.231ZM422.065 108.194C425.904 108.194 429.238 107.386 432.066 105.77C434.895 104.153 437.067 101.88 438.582 98.9507C440.199 96.0211 441.007 92.5864 441.007 88.6466C441.007 84.7068 440.199 81.2721 438.582 78.3425C436.966 75.3118 434.743 72.9884 431.915 71.372C429.086 69.6547 425.803 68.796 422.065 68.796C418.227 68.796 414.792 69.6547 411.761 71.372C408.832 72.9884 406.508 75.3118 404.791 78.3425C403.174 81.2721 402.366 84.7068 402.366 88.6466C402.366 92.4854 403.174 95.8696 404.791 98.7992C406.508 101.729 408.832 104.052 411.761 105.77C414.792 107.386 418.227 108.194 422.065 108.194Z" fill="#FFFAFA"/>
<path d="M521.536 134.712C513.353 134.712 505.878 132.843 499.109 129.105C492.442 125.368 487.088 120.266 483.047 113.801C479.107 107.234 477.137 99.8094 477.137 91.5257C477.137 83.141 479.107 75.7159 483.047 69.2506C487.088 62.7853 492.442 57.6837 499.109 53.946C505.878 50.2082 513.353 48.3393 521.536 48.3393C529.719 48.3393 537.144 50.2082 543.811 53.946C550.479 57.6837 555.782 62.7853 559.722 69.2506C563.763 75.7159 565.783 83.141 565.783 91.5257C565.783 99.8094 563.763 107.234 559.722 113.801C555.782 120.266 550.479 125.368 543.811 129.105C537.144 132.843 529.719 134.712 521.536 134.712ZM521.536 114.255C525.678 114.255 529.264 113.296 532.295 111.376C535.426 109.457 537.851 106.78 539.568 103.345C541.387 99.9104 542.296 95.9706 542.296 91.5257C542.296 87.0808 541.387 83.1915 539.568 79.8578C537.851 76.4231 535.426 73.746 532.295 71.8266C529.264 69.8062 525.678 68.796 521.536 68.796C517.394 68.796 513.757 69.8062 510.626 71.8266C507.494 73.746 505.019 76.4231 503.201 79.8578C501.483 83.1915 500.625 87.0808 500.625 91.5257C500.625 95.9706 501.483 99.9104 503.201 103.345C505.019 106.78 507.494 109.457 510.626 111.376C513.757 113.296 517.394 114.255 521.536 114.255Z" fill="#FFFAFA"/>
<path d="M12.1191 0.0299821C8.15941 0.0396794 4.2027 0.0493694 0.251293 0.0549802C0.224764 10.3005 0.183178 20.6296 0.141416 31.0024C0.0047448 64.9484 -0.133813 99.363 0.247318 132.849L25.3267 132.889C25.3283 121.157 25.2568 109.111 25.1847 96.9602C25.0336 71.4999 24.8797 45.5829 25.3904 21.1407C27.2312 21.1197 29.3206 21.0355 31.5652 20.9451C43.0087 20.4842 58.4854 19.8609 65.6173 26.622C72.6066 33.2477 72.5662 47.8038 65.6053 54.489C63.0447 56.9135 59.7411 58.3542 56.4967 59.7691C50.2428 62.4965 44.2086 65.128 44.138 74.5245C44.1109 76.1036 44.2559 77.6814 44.5707 79.2295C47.3471 85.5054 49.6651 87.1153 52.987 89.4225C54.6503 90.5778 56.5653 91.9079 58.9157 94.0861C68.3838 102.861 72.9257 120.444 75.4317 132.894L101.291 132.853C97.4585 118.181 88.9223 96.9342 83.5594 90.4016C78.1966 83.8689 78.1614 84.3856 74.5501 81.0327C70.9388 77.6799 67.8547 75.2866 67.7707 74.882C70.3744 72.5614 75.9842 69.7145 79.2622 68.0531C99.7841 57.6555 101.8 29.6182 87.1509 13.3641C78.9828 4.30223 67.1134 0.192774 55.1621 0.117931C40.8495 -0.0403788 26.4648 -0.00515064 12.1191 0.0299821Z" fill="#FFFAFA"/>
<circle cx="354.518" cy="25.5253" r="13.3704" fill="#DB3B3B"/>
</svg>
